<?xml version="1.0" encoding="UTF-8"?>
<svg width="60" height="60" xmlns="http://www.w3.org/2000/svg">
	<defs>
		<clipPath id="circle">
			<circle cx="30" cy="30" r="29"/>
		</clipPath>
	</defs>
	<g>
		<circle cx="30" cy="30" r="29" stroke="none" fill="#aaf" />
		<path d="M 1,30 C 4,23 10.5,10 15.5,10 C 20.5,10 27,24 30,30 C 33,36 40.5,50 45.5,50 C 50.5,50 56,37 59,30" stroke="#f00" stroke-width="2" fill="none" clip-path="url(#circle)" />
		<rect x="21" y="1" width="18" height="18" rx="2" ry="2" stroke="#000" fill="#fff" fill-opacity="0.8" />
		<rect x="41" y="1" width="18" height="18" rx="2" ry="2" stroke="#000" fill="#fff" fill-opacity="0.8" clip-path="url(#circle)" />
		<rect x="1" y="21" width="18" height="18" rx="2" ry="2" stroke="#000" fill="#fff" fill-opacity="0.8" />
		<rect x="21" y="21" width="18" height="18" rx="2" ry="2" stroke="#000" fill="#fff" fill-opacity="0.8" />
		<rect x="41" y="21" width="18" height="18" rx="2" ry="2" stroke="#000" fill="#fff" fill-opacity="0.8" />
		<rect x="1" y="41" width="18" height="18" rx="2" ry="2" stroke="#000" fill="#fff" fill-opacity="0.8" clip-path="url(#circle)" />
		<rect x="21" y="41" width="18" height="18" rx="2" ry="2" stroke="#000" fill="#fff" fill-opacity="0.8" />
		<text x="22" y="14" font-family="sans-serif" font-size="13">sin</text>
		<text x="42" y="15" font-family="sans-serif" font-style="italic" font-size="12">x</text>
		<text x="9" y="37" font-family="sans-serif" font-style="italic" font-size="19">i</text>
		<text x="23" y="38" font-family="sans-serif" font-weight="bold" font-size="25">+</text>
		<text x="43" y="38" font-family="sans-serif" font-weight="bold" font-size="23">=</text>
		<text x="9" y="54" font-family="sans-serif" font-size="17">^</text>
		<text x="22" y="53" font-family="sans-serif" font-size="10">gcd</text>
	</g>
</svg>
