<?xml version="1.0" standalone="no"?>
<!DOCTYPE svg PUBLIC "-//W3C//DTD SVG 20010904//EN"
 "http://www.w3.org/TR/2001/REC-SVG-20010904/DTD/svg10.dtd">
<svg version="1.0" xmlns="http://www.w3.org/2000/svg"
 width="512.000000pt" height="512.000000pt" viewBox="0 0 512.000000 512.000000"
 preserveAspectRatio="xMidYMid meet">
<metadata>
Created by potrace 1.11, written by Peter Selinger 2001-2013
</metadata>
<g transform="translate(0.000000,512.000000) scale(0.100000,-0.100000)"
fill="#000000" stroke="none">
<path d="M1912 5070 c-57 -14 -108 -55 -136 -111 l-26 -53 0 -399 0 -398 -75
68 c-212 192 -378 222 -581 102 -81 -47 -283 -250 -381 -383 -82 -111 -172
-251 -273 -426 l-56 -95 -94 -5 c-118 -6 -174 -34 -217 -108 l-28 -47 0 -656
0 -656 30 -48 c22 -36 45 -57 84 -77 l54 -28 657 2 657 3 42 29 c23 16 54 50
69 75 l27 46 0 655 0 655 -27 46 c-15 25 -46 59 -69 75 l-42 29 -473 5 -473 5
97 158 c229 370 441 599 595 639 111 29 252 -60 419 -267 l56 -70 4 -121 c3
-115 4 -123 32 -163 37 -53 96 -88 163 -97 46 -6 55 -11 73 -41 11 -19 20 -36
20 -39 0 -2 -27 -4 -60 -4 -100 0 -173 -43 -211 -125 -17 -38 -19 -78 -19
-683 0 -702 -2 -682 58 -746 15 -16 45 -37 67 -47 37 -17 75 -19 535 -19 l495
0 23 -35 c12 -19 22 -37 22 -39 0 -3 -235 -6 -522 -8 l-523 -3 -46 -27 c-25
-15 -59 -46 -75 -69 l-29 -42 -3 -657 -2 -657 28 -54 c20 -39 41 -62 77 -84
l48 -30 657 0 657 0 48 30 c36 22 57 45 77 84 l28 53 0 439 0 439 91 -90 c106
-105 216 -181 307 -211 286 -95 579 168 931 839 l64 122 73 0 c97 0 165 34
209 105 l30 48 0 657 0 657 -30 48 c-22 36 -45 57 -84 77 l-54 28 -657 -2
-657 -3 -42 -29 c-23 -16 -54 -50 -69 -75 l-27 -46 0 -655 0 -655 27 -46 c15
-25 46 -59 69 -75 l42 -29 489 -5 488 -5 -81 -145 c-134 -240 -240 -392 -359
-511 -87 -88 -115 -110 -163 -127 -80 -30 -113 -28 -197 14 -83 42 -232 178
-335 307 l-63 79 -4 83 c-3 74 -6 88 -34 126 -31 43 -95 84 -146 94 -17 3 -37
20 -53 43 l-25 37 57 6 c66 6 106 25 145 66 60 62 58 43 58 745 0 605 -2 645
-19 683 -10 22 -31 52 -47 67 -62 58 -60 58 -583 58 l-481 0 -20 40 -20 39
508 3 507 3 46 27 c25 15 59 46 75 69 l29 42 3 657 2 657 -28 54 c-20 39 -41
62 -77 84 l-48 30 -636 2 c-350 1 -651 -2 -669 -7z m1308 -95 c62 -32 60 -12
60 -713 0 -633 0 -640 -21 -666 -45 -58 -24 -56 -699 -56 -675 0 -654 -2 -699
56 -21 26 -21 33 -21 666 0 698 -1 680 58 712 41 23 1279 23 1322 1z m-1707
-1708 c16 -10 37 -32 47 -50 19 -31 20 -55 20 -657 0 -602 -1 -626 -20 -657
-43 -72 -3 -68 -705 -68 -583 0 -632 1 -662 18 -65 35 -63 11 -63 707 0 543 2
635 15 660 16 30 40 48 83 59 13 4 301 6 641 6 577 0 619 -1 644 -18z m1672
14 c24 -6 51 -23 68 -41 l27 -30 0 -650 0 -650 -27 -30 c-16 -18 -43 -34 -63
-38 -54 -12 -1209 -14 -1255 -3 -23 6 -51 23 -67 41 l-28 30 0 650 0 650 28
31 c15 17 42 34 61 37 53 11 1211 13 1256 3z m1742 -14 c65 -35 63 -11 63
-707 0 -696 2 -672 -63 -707 -29 -16 -86 -17 -662 -18 -702 0 -662 -4 -705 68
-19 31 -20 55 -20 655 0 665 -1 651 49 696 11 10 35 22 53 26 18 5 308 8 643
7 562 -2 613 -3 642 -20z m-1723 -1701 c18 -7 42 -26 54 -41 l22 -28 0 -639
c0 -701 2 -681 -60 -713 -44 -23 -1276 -23 -1320 0 -62 32 -60 12 -60 712 0
705 -4 663 64 704 30 18 58 19 649 19 502 0 624 -3 651 -14z"/>
<path d="M2527 4642 c-33 -36 -8 -92 40 -92 25 0 53 30 53 57 0 46 -62 69 -93
35z"/>
<path d="M2060 4405 c-132 -42 -162 -198 -50 -255 22 -11 77 -32 122 -46 116
-37 156 -59 164 -91 9 -33 -4 -53 -47 -76 -45 -24 -166 -18 -234 12 -27 12
-49 20 -50 19 -1 -2 -7 -19 -14 -38 -15 -44 -4 -53 90 -74 123 -29 223 -17
288 31 84 64 79 188 -11 243 -18 11 -83 36 -144 55 -61 19 -119 43 -128 54
-24 26 -15 63 20 82 42 22 168 17 226 -9 l46 -21 15 37 c8 20 13 40 11 44 -2
3 -25 14 -52 23 -66 23 -196 29 -252 10z"/>
<path d="M2966 4405 c-21 -7 -56 -27 -77 -45 l-39 -31 0 41 0 40 -45 0 -45 0
0 -280 0 -280 45 0 45 0 0 199 0 199 39 35 c74 67 168 75 225 18 l31 -31 3
-210 3 -210 45 0 44 0 0 209 c0 129 -4 221 -11 242 -33 97 -152 144 -263 104z"/>
<path d="M2520 4130 l0 -280 45 0 45 0 0 280 0 280 -45 0 -45 0 0 -280z"/>
<path d="M1039 3091 c-17 -18 -29 -40 -29 -56 0 -35 50 -85 85 -85 35 0 85 50
85 85 0 35 -50 85 -85 85 -16 0 -38 -12 -56 -29z"/>
<path d="M960 2756 c0 -2 -38 -183 -85 -402 -47 -220 -85 -402 -85 -406 0 -5
32 -8 70 -8 39 0 70 2 70 4 0 2 38 183 85 402 47 220 85 402 85 407 0 4 -31 7
-70 7 -38 0 -70 -2 -70 -4z"/>
<path d="M2440 2850 l0 -200 -200 0 -200 0 0 -135 0 -135 200 0 200 0 0 -200
0 -200 135 0 135 0 0 200 0 200 200 0 200 0 0 135 0 135 -200 0 -200 0 0 200
0 200 -135 0 -135 0 0 -200z"/>
<path d="M3750 2685 l0 -125 490 0 490 0 0 125 0 125 -490 0 -490 0 0 -125z"/>
<path d="M3750 2225 l0 -125 490 0 490 0 0 125 0 125 -490 0 -490 0 0 -125z"/>
<path d="M3120 1096 l0 -113 -47 23 c-134 68 -263 -28 -263 -197 0 -175 137
-279 268 -204 40 23 42 23 42 4 0 -15 7 -19 35 -19 l35 0 0 310 0 310 -35 0
-35 0 0 -114z m-31 -153 c25 -19 26 -25 29 -128 2 -92 0 -111 -15 -127 -61
-67 -161 -60 -199 14 -9 18 -19 59 -21 93 -4 49 0 68 19 105 13 25 34 51 48
58 33 17 106 9 139 -15z"/>
<path d="M2015 1010 c-101 -50 -136 -215 -72 -339 43 -85 150 -115 235 -66
l42 24 0 -39 c0 -88 -51 -127 -152 -116 -32 3 -74 13 -94 21 -21 8 -38 14 -40
13 -1 -2 -4 -16 -6 -32 -3 -28 0 -31 52 -47 100 -32 207 -22 259 25 47 42 51
69 51 326 l0 240 -35 0 c-27 0 -35 -4 -35 -19 0 -17 -3 -17 -47 5 -57 29 -105
30 -158 4z m174 -67 c25 -19 26 -25 29 -128 2 -92 0 -111 -15 -127 -61 -67
-161 -60 -199 14 -9 18 -19 59 -21 93 -4 49 0 68 19 105 13 25 34 51 48 58 33
17 106 9 139 -15z"/>
<path d="M2515 1016 c-143 -53 -182 -261 -71 -372 27 -27 57 -46 86 -54 53
-14 140 -8 192 13 35 15 37 17 27 45 l-10 29 -52 -18 c-67 -23 -114 -24 -157
-1 -43 23 -80 90 -80 147 0 57 37 126 80 148 41 21 120 18 168 -7 30 -15 30
-15 41 15 10 29 9 31 -27 46 -51 23 -148 27 -197 9z"/>
<path d="M3452 4238 c3 -616 3 -623 25 -663 24 -46 54 -75 103 -101 33 -18 72
-19 658 -22 483 -2 622 0 622 9 0 7 -5 28 -12 46 l-12 33 -596 0 c-557 0 -597
1 -629 18 -47 25 -71 74 -71 144 l0 58 48 0 c47 -1 47 -1 142 100 l95 101 50
-100 49 -101 48 0 48 0 -67 134 -67 134 40 45 c21 25 72 82 113 126 l73 81
-48 0 c-49 0 -49 0 -134 -91 l-85 -91 -45 91 -44 91 -49 0 c-27 0 -47 -3 -45
-7 2 -5 30 -61 63 -125 l59 -116 -57 -64 c-31 -35 -85 -94 -121 -133 l-65 -70
-1 535 0 536 -33 12 c-18 7 -39 12 -46 12 -9 0 -11 -139 -9 -622z"/>
<path d="M260 1659 c0 -7 5 -28 12 -46 l12 -33 596 0 c557 0 597 -1 629 -18
19 -10 43 -34 53 -53 17 -32 18 -72 18 -629 l0 -596 33 -12 c18 -7 39 -12 46
-12 9 0 11 139 9 623 -3 585 -4 624 -22 657 -26 49 -55 79 -101 103 -40 22
-47 22 -662 25 -484 2 -623 0 -623 -9z"/>
<path d="M1031 1448 c-10 -24 -66 -150 -125 -282 -58 -131 -106 -240 -106
-243 0 -2 27 -3 61 -1 l61 3 88 209 c49 114 91 210 93 213 3 2 45 -92 95 -209
l90 -213 61 -3 c34 -2 61 -1 61 1 0 3 -56 130 -124 283 l-124 279 -56 3 -56 3
-19 -43z"/>
</g>
</svg>
