<?xml version="1.0" standalone="no"?>
<!DOCTYPE svg PUBLIC "-//W3C//DTD SVG 20010904//EN"
 "http://www.w3.org/TR/2001/REC-SVG-20010904/DTD/svg10.dtd">
<svg version="1.0" xmlns="http://www.w3.org/2000/svg"
 width="512.000000pt" height="512.000000pt" viewBox="0 0 512.000000 512.000000"
 preserveAspectRatio="xMidYMid meet">
<metadata>
Created by potrace 1.11, written by Peter Selinger 2001-2013
</metadata>
<g transform="translate(0.000000,512.000000) scale(0.100000,-0.100000)"
fill="#000000" stroke="none">
<path d="M1667 4863 c-4 -3 -7 -321 -7 -705 l0 -698 -702 -2 -703 -3 -3 -42
-3 -43 705 0 706 0 0 -810 0 -810 -706 0 -705 0 3 -42 3 -43 702 -3 703 -2 2
-703 3 -702 43 -3 42 -3 0 705 0 706 810 0 810 0 0 -706 0 -705 43 3 42 3 3
702 2 703 703 2 702 3 3 43 3 42 -705 0 -706 0 0 810 0 810 706 0 705 0 -3 43
-3 42 -702 3 -703 2 -2 703 -3 702 -42 3 -43 3 0 -705 0 -706 -810 0 -810 0 0
705 0 705 -38 0 c-21 0 -42 -3 -45 -7z m1703 -2303 l0 -810 -810 0 -810 0 0
810 0 810 810 0 810 0 0 -810z"/>
<path d="M2440 2850 l0 -200 -200 0 -200 0 0 -135 0 -135 200 0 200 0 0 -200
0 -200 135 0 135 0 0 200 0 200 200 0 200 0 0 135 0 135 -200 0 -200 0 0 200
0 200 -135 0 -135 0 0 -200z"/>
<path d="M2526 4644 c-34 -33 -9 -94 38 -94 28 0 56 29 56 57 0 44 -63 69 -94
37z"/>
<path d="M2059 4407 c-103 -39 -147 -125 -105 -206 21 -40 54 -59 184 -102
130 -43 169 -71 158 -113 -3 -14 -18 -34 -33 -43 -40 -27 -170 -23 -243 5 -30
12 -56 22 -57 22 -1 0 -7 -17 -12 -37 -12 -43 -3 -55 59 -74 54 -17 200 -23
247 -10 82 22 133 86 133 165 0 80 -62 128 -225 176 -134 39 -165 77 -102 124
40 30 152 29 221 -2 27 -12 50 -21 51 -20 6 7 35 68 35 73 0 3 -21 16 -47 27
-60 27 -210 35 -264 15z"/>
<path d="M2945 4395 c-27 -13 -60 -32 -72 -41 -23 -16 -23 -16 -23 20 l0 36
-45 0 -45 0 0 -280 0 -280 45 0 45 0 0 199 0 199 40 35 c56 48 120 65 173 46
77 -27 82 -43 85 -275 l3 -204 45 0 44 0 0 214 c0 127 -4 226 -11 243 -39 103
-171 144 -284 88z"/>
<path d="M2520 4130 l0 -280 45 0 45 0 0 280 0 280 -45 0 -45 0 0 -280z"/>
<path d="M3660 4275 c0 -3 28 -59 62 -124 l63 -118 -90 -98 c-50 -54 -105
-115 -123 -136 l-34 -39 54 0 53 1 85 94 c46 52 88 95 91 95 4 0 29 -43 56
-95 l48 -95 48 0 c27 0 47 4 45 10 -1 5 -32 65 -68 133 l-64 124 112 124 112
124 -48 3 -47 4 -82 -89 c-94 -101 -85 -102 -144 20 l-33 67 -48 0 c-26 0 -48
-2 -48 -5z"/>
<path d="M1035 3094 c-53 -57 -16 -144 60 -144 49 0 85 36 85 85 0 78 -93 115
-145 59z"/>
<path d="M3750 2685 l0 -125 490 0 490 0 0 125 0 125 -490 0 -490 0 0 -125z"/>
<path d="M956 2743 c-9 -31 -166 -780 -166 -792 0 -7 24 -11 70 -11 64 0 70 2
75 23 19 78 165 774 165 785 0 8 -21 12 -69 12 -58 0 -71 -3 -75 -17z"/>
<path d="M3750 2225 l0 -125 490 0 490 0 0 125 0 125 -490 0 -490 0 0 -125z"/>
<path d="M1041 1471 c-16 -28 -241 -540 -241 -547 0 -3 28 -4 62 -2 l61 3 83
195 c46 107 87 203 91 213 7 14 31 -33 99 -195 l90 -213 62 -3 c34 -2 62 1 61
5 0 4 -55 132 -122 283 l-122 275 -57 3 c-48 2 -58 0 -67 -17z"/>
<path d="M3120 1095 l0 -116 -31 23 c-25 19 -44 23 -98 23 -58 0 -73 -4 -103
-27 -56 -43 -73 -88 -73 -194 0 -83 2 -94 30 -139 40 -65 83 -87 158 -82 39 2
67 10 87 25 30 22 30 22 30 2 0 -16 6 -20 35 -20 l35 0 0 310 0 310 -35 0 -35
0 0 -115z m-60 -141 c22 -9 45 -25 50 -35 6 -10 10 -63 10 -117 0 -99 0 -100
-30 -126 -65 -54 -152 -39 -186 32 -25 50 -25 155 -1 200 18 32 63 61 99 62
10 0 36 -7 58 -16z"/>
<path d="M2012 1014 c-72 -37 -107 -118 -100 -228 6 -84 33 -144 80 -178 48
-33 153 -33 199 1 l32 24 -5 -54 c-9 -92 -75 -125 -191 -96 -34 8 -69 18 -78
22 -12 4 -18 -1 -23 -20 -9 -36 -3 -42 56 -60 79 -23 176 -20 228 8 76 40 80
55 80 339 l0 248 -35 0 c-29 0 -35 -4 -35 -20 0 -20 0 -20 -30 2 -40 29 -132
35 -178 12z m148 -60 c22 -9 45 -25 50 -35 6 -10 10 -63 10 -117 0 -99 0 -100
-30 -126 -65 -54 -152 -39 -186 32 -25 50 -25 155 -1 200 18 32 63 61 99 62
10 0 36 -7 58 -16z"/>
<path d="M2489 1002 c-158 -82 -143 -337 23 -406 63 -27 185 -18 232 17 15 11
16 17 5 40 -7 15 -17 25 -23 23 -6 -3 -35 -12 -64 -21 -67 -21 -112 -14 -157
26 -85 75 -64 233 35 273 51 20 72 20 138 -3 l53 -18 10 25 c12 31 -3 46 -61
62 -66 18 -134 12 -191 -18z"/>
</g>
</svg>
